<?xml version="1.0" encoding="UTF-8" standalone="no"?>
<svg xmlns:rdf="http://www.w3.org/1999/02/22-rdf-syntax-ns#" xmlns="http://www.w3.org/2000/svg" height="501px" width="270px" xmlns:cc="http://creativecommons.org/ns#" xmlns:xlink="http://www.w3.org/1999/xlink" xmlns:dc="http://purl.org/dc/elements/1.1/">
<title>Limulus polyphemus (Horseshoe Crab)</title>
<desc xmlns:ian_image_library="http://ian.umces.edu/imagelibrary/">
      <ian_image_library:title>Limulus polyphemus (Horseshoe Crab)</ian_image_library:title>
      <ian_image_library:descr>Illustration of Limulus polyphemus (Horseshoe Crab)</ian_image_library:descr>
      <ian_image_library:scene>
		<ian_image_library:contains>symbol,vector,illustration,horseshoe,crab,Arthropoda,Chelicerata,Merostomata,Xiphosura,Limulidae,Limulus,polyphemus,Limulus,cyclops,Xiphosura,americana,Polyphemus,occidentalis,Atlantic,marine</ian_image_library:contains>
        <ian_image_library:when>2004-08-24</ian_image_library:when>
	  </ian_image_library:scene>
   </desc>
    <metadata
		id="metadata-iil-24f76c245ac88954a9df68bfd458afa9">
      <rdf:RDF>
      <cc:Work
         rdf:about="">
        <dc:format>image/svg+xml</dc:format>
        <dc:type
           rdf:resource="http://purl.org/dc/dcmitype/StillImage" />
        <cc:license
           rdf:resource="http://creativecommons.org/licenses/by-sa/3.0/" />
        <dc:title>Limulus polyphemus (Horseshoe Crab)</dc:title>
		<dc:date>2004-08-24</dc:date>
        <dc:creator>
			<cc:Agent>
				<dc:title>Jane Thomas</dc:title>
			</cc:Agent>
		</dc:creator>
		<dc:rights>
          <cc:Agent>
            <dc:title>Jane Thomas, Integration and Application Network</dc:title>
          </cc:Agent>
        </dc:rights>
        <dc:publisher>
          <cc:Agent>
            <dc:title>Integration and Application Network</dc:title>
          </cc:Agent>
        </dc:publisher>
		<dc:identifier>http://ian.umces.edu/imagelibrary/displayimage-4352.html</dc:identifier>
        <dc:source>http://ian.umces.edu/imagelibrary/displayimage-4352.html</dc:source>
        <dc:language>en-US</dc:language>
        <dc:subject>
          <rdf:Bag>
            <rdf:li>symbol,vector,illustration,horseshoe,crab,Arthropoda,Chelicerata,Merostomata,Xiphosura,Limulidae,Limulus,polyphemus,Limulus,cyclops,Xiphosura,americana,Polyphemus,occidentalis,Atlantic,marine</rdf:li>
          </rdf:Bag>
        </dc:subject>
        <dc:coverage></dc:coverage>
        <dc:description>Illustration of Limulus polyphemus (Horseshoe Crab)</dc:description>
        <dc:contributor>
          <cc:Agent>
            <dc:title></dc:title>
          </cc:Agent>
        </dc:contributor>
      </cc:Work>
      <cc:License
         rdf:about="http://creativecommons.org/licenses/by-sa/3.0/">
        <cc:permits
           rdf:resource="http://creativecommons.org/ns#Reproduction" />
        <cc:permits
           rdf:resource="http://creativecommons.org/ns#Distribution" />
        <cc:requires
           rdf:resource="http://creativecommons.org/ns#Notice" />
        <cc:requires
           rdf:resource="http://creativecommons.org/ns#Attribution" />
        <cc:permits
           rdf:resource="http://creativecommons.org/ns#DerivativeWorks" />
        <cc:requires
           rdf:resource="http://creativecommons.org/ns#ShareAlike" />
      </cc:License>
    </rdf:RDF>
  </metadata>
	
 <defs></defs>
 <path d="m144.13 288.67c-12.08-1.211-13.86 210.53-21.731 211.32-7.877.778 0-190.79-12.073-212.53l33.8 1.21z" fill="#7E6F61"/>
 <path d="m219 215.62c5.719 1.868 27.802 27.967 25.433 33.5-7.491-9.752-24.525-22.807-27.246-25.653l1.82-7.85z" fill="#7E6F61"/>
 <path d="m244.64 250.81l-.896-1.166c-5.299-6.897-15.661-15.667-21.853-20.907-2.584-2.187-4.548-3.853-5.334-4.675l-.32-.336 2.13-9.216.895.292c5.198 1.698 20.87 19.919 25.028 29.1 1.144 2.526 1.447 4.344.929 5.557l-.58 1.36zm-26.51-27.62c.91.874 2.661 2.352 4.877 4.228 5.662 4.792 14.784 12.512 20.47 19.162-.156-.535-.396-1.185-.752-1.972-3.997-8.825-17.842-24.756-23.126-27.771l-1.47 6.35z"/>
 <path d="m217.43 225.1c5.455 2.521 24.323 31.03 21.325 36.248-6.301-10.561-21.69-25.518-24.053-28.674l2.72-7.58z" fill="#7E6F61"/>
 <path d="m238.77 263.06l-.753-1.263c-4.437-7.437-13.665-17.33-19.18-23.242-2.348-2.517-4.133-4.436-4.822-5.358l-.278-.371 3.202-8.894.854.395c4.955 2.29 18.378 22.217 21.436 31.823.843 2.647.933 4.49.274 5.635l-.73 1.26zm-23.09-30.54c.81.989 2.403 2.694 4.421 4.857 5.363 5.75 13.211 14.163 18.008 21.341-.093-.55-.255-1.225-.518-2.05-2.938-9.233-14.815-26.671-19.703-30.28l-2.21 6.13z"/>
 <path d="m210.46 237.02c5.428 2.599 23.843 31.416 20.757 36.58-6.138-10.652-21.277-25.85-23.593-29.044l2.83-7.54z" fill="#7E6F61"/>
 <path d="m231.21 275.3l-.732-1.271c-4.323-7.503-13.394-17.543-18.812-23.541-2.305-2.551-4.057-4.495-4.731-5.427l-.272-.375 3.33-8.848.847.406c4.914 2.353 18.023 22.48 20.937 32.144.805 2.668.866 4.518.188 5.654l-.77 1.27zm-22.61-30.89c.793 1.001 2.358 2.729 4.338 4.921 5.272 5.836 12.987 14.375 17.674 21.628-.085-.556-.237-1.239-.49-2.078-2.8-9.287-14.397-26.898-19.226-30.574l-2.29 6.1z"/>
 <path d="m201.08 250.15c6.456 3.228 28.099 38.21 24.296 44.362-7.188-12.933-25.121-31.477-27.849-35.348l3.55-9.01z" fill="#7E6F61"/>
 <path d="m225.34 296.21l-.713-1.283c-5.085-9.151-15.845-21.416-22.272-28.744-2.692-3.069-4.738-5.406-5.527-6.526l-.268-.379 4.068-10.322.841.421c5.858 2.929 21.206 27.327 24.511 38.963.896 3.152.938 5.318.133 6.622l-.77 1.25zm-26.83-37.18c.913 1.197 2.773 3.314 5.142 6.014 6.015 6.856 15.794 18.004 21.301 27.019-.048-.787-.225-1.843-.626-3.256-3.222-11.344-17.14-33.121-22.819-37.381l-2.99 7.61z"/>
 <path d="m192.99 273.54c6.632 4.027 26.678 43.422 22.063 49.675-6.544-14.496-24.1-35.963-26.686-40.349l4.63-9.33z" fill="#7E6F61"/>
 <path d="m214.87 324.9l-.605-1.34c-4.645-10.29-15.104-24.418-21.353-32.859-2.631-3.554-4.531-6.121-5.289-7.407l-.237-.402 5.246-10.584.802.486c5.985 3.634 20.223 31.083 22.737 43.837.682 3.454.541 5.771-.429 7.086l-.87 1.17zm-25.52-42.08c.858 1.34 2.689 3.813 4.948 6.865 5.888 7.953 15.487 20.92 20.563 31.124.045-.881-.038-2.113-.378-3.836-2.463-12.494-15.514-37.181-21.182-42.127l-3.95 7.99z"/>
 <path d="m176.79 295.4c6.253 5.773 19.247 52.423 12.926 58.142-3.878-16.987-18.076-43.842-19.896-49.12l6.97-9.02z" fill="#7E6F61"/>
 <path d="m189.21 355.17l-.327-1.433c-2.75-12.047-10.906-29.471-15.779-39.881-2.065-4.412-3.558-7.6-4.093-9.15l-.151-.438 7.83-10.133.69.638c5.639 5.206 14.964 37.745 14.893 51.964-.019 3.828-.664 6.264-1.973 7.447l-1.09.98zm-18.41-50.6c.625 1.626 2.074 4.722 3.866 8.551 4.625 9.881 12.19 26.042 15.375 38.106.282-.95.502-2.374.513-4.505.07-14.012-8.68-43.57-13.701-49.985l-6.05 7.83z"/>
 <path d="m30.869 215.62c-5.725 1.868-27.809 27.967-25.433 33.5 7.498-9.752 24.533-22.807 27.253-25.653l-1.82-7.85z" fill="#7E6F61"/>
 <path d="m5.224 250.81l-.579-1.349c-.521-1.213-.218-3.031.924-5.556 4.155-9.182 19.829-27.404 25.033-29.102l.894-.292 2.138 9.216-.322.336c-.787.823-2.753 2.492-5.341 4.682-6.19 5.239-16.551 14.006-21.852 20.901l-.895 1.16zm25.044-33.97c-5.288 3.013-19.137 18.947-23.13 27.772-.357.79-.596 1.441-.752 1.977 5.687-6.648 14.81-14.369 20.473-19.161 2.22-1.878 3.974-3.359 4.884-4.233l-1.475-6.36z"/>
 <path d="m33.711 226.01c-5.624 2.119-26.543 29.169-23.93 34.6 7.065-10.081 23.504-23.863 26.089-26.841l-2.159-7.76z" fill="#7E6F61"/>
 <path d="m9.643 262.31l-.637-1.325c-.573-1.19-.35-3.021.683-5.597 3.748-9.355 18.601-28.254 23.72-30.182l.88-.332 2.535 9.111-.303.35c-.757.872-2.683 2.66-5.216 5.005-5.927 5.488-15.847 14.673-20.818 21.765l-.844 1.21zm23.522-35.05c-5.147 3.247-18.276 19.778-21.879 28.769-.322.804-.532 1.465-.665 2.007 5.31-6.808 13.748-14.62 19.514-19.958 2.176-2.016 3.897-3.605 4.778-4.534l-1.748-6.29z"/>
 <path d="m39.403 237.02c-5.415 2.599-23.85 31.416-20.764 36.58 6.138-10.652 21.285-25.85 23.599-29.044l-2.835-7.54z" fill="#7E6F61"/>
 <path d="m18.653 275.3l-.752-1.259c-.677-1.133-.618-2.976.182-5.633 2.907-9.661 16.024-29.801 20.948-32.164l.847-.407 3.33 8.849-.272.375c-.676.933-2.429 2.878-4.735 5.429-5.42 5.998-14.492 16.037-18.815 23.539l-.733 1.27zm20.316-36.99c-4.835 3.684-16.443 21.309-19.237 30.594-.25.829-.4 1.506-.484 2.057 4.687-7.251 12.403-15.79 17.676-21.625 1.981-2.192 3.547-3.922 4.341-4.923l-2.296-6.11z"/>
 <path d="m48.79 250.15c-6.477 3.228-28.106 38.21-24.296 44.362 7.18-12.933 25.115-31.477 27.85-35.348l-3.554-9.01z" fill="#7E6F61"/>
 <path d="m24.534 296.21l-.772-1.248c-.809-1.307-.766-3.479.133-6.642 3.309-11.641 18.657-36.026 24.511-38.944l.841-.419 4.068 10.321-.268.38c-.788 1.115-2.821 3.437-5.498 6.487-6.438 7.336-17.213 19.616-22.302 28.782l-.713 1.28zm23.836-44.78c-5.676 4.25-19.592 26.015-22.818 37.362-.405 1.424-.582 2.486-.63 3.277 5.511-9.03 15.308-20.193 21.333-27.059 2.353-2.681 4.202-4.784 5.112-5.976l-2.997-7.6z"/>
 <path d="m56.884 273.54c-6.639 4.027-26.685 43.422-22.069 49.675 6.544-14.496 24.099-35.963 26.678-40.349l-4.609-9.33z" fill="#7E6F61"/>
 <path d="m34.995 324.9l-.873-1.183c-.97-1.314-1.11-3.635-.428-7.093 2.518-12.756 16.759-40.201 22.743-43.83l.803-.487 5.231 10.584-.236.401c-.758 1.291-2.667 3.87-5.31 7.441-6.241 8.433-16.686 22.548-21.325 32.826l-.605 1.34zm21.574-50.06c-5.667 4.945-18.719 29.625-21.186 42.12-.341 1.727-.424 2.961-.379 3.843 5.07-10.19 14.657-23.146 20.536-31.09 2.271-3.068 4.11-5.554 4.969-6.899l-3.94-7.97z"/>
 <path d="m73.675 295.4c-6.26 5.773-19.247 52.423-12.92 58.142 3.878-16.987 18.077-43.842 19.891-49.12l-6.971-9.02z" fill="#7E6F61"/>
 <path d="m61.267 355.17l-1.089-.984c-1.311-1.186-1.958-3.625-1.977-7.46-.071-14.223 9.253-46.754 14.89-51.953l.691-.637 7.829 10.132-.151.438c-.535 1.557-2.034 4.761-4.108 9.195-4.866 10.399-13.01 27.806-15.757 39.837l-.328 1.43zm12.354-58.43c-5.021 6.409-13.769 35.96-13.699 49.973.011 2.141.232 3.568.516 4.521 3.18-12.049 10.734-28.194 15.353-38.065 1.801-3.851 3.257-6.962 3.883-8.595l-6.053-7.82z"/>
 <path d="m220.21 165.5c-5.062 1.861-9.752 4.717-14.157 7.979-4.155 3.086-6.268 8.371-9.936 10.869-7.119 4.849-23.943 2.288-32.059 2.288h-51.928c-14.28 0-30.042 1.878-44.132-.437-5.549-.904-6.564-2.914-10.213-6.207-7.545-6.815-16.601-13.927-20.451-23.426 39.983-10.48 82.64-4.544 123.57-4.338 6.592.034 25.521 3.817 32.112.585l27.21 12.7z" fill="#717269"/>
 <path d="m84.667 188.22c-6.623 0-11.964-.371-16.811-1.167-4.776-.778-6.486-2.432-8.854-4.722-.539-.521-1.122-1.086-1.796-1.694l-2.984-2.66c-7.011-6.207-14.26-12.625-17.688-21.082l-.368-.908.948-.248c16.205-4.248 34.415-6.226 57.305-6.226 11.528 0 23.266.477 34.617.938 10.492.427 21.342.868 31.871.921 1.974.01 5.04.35 8.552.743 8.684.969 19.475 1.747 23.178-.069l.37-.182 29.439 13.734-1.94.714c-4.442 1.633-9.003 4.206-13.942 7.863-1.989 1.477-3.521 3.531-5.003 5.518-1.553 2.082-3.02 4.049-4.961 5.37-3.117 2.124-8.087 3.113-15.637 3.113-3.471 0-7.002-.206-10.174-.391-2.555-.149-4.873-.285-6.732-.285h-51.928c-4.359 0-8.857.176-13.403.353-4.679.20-9.398.39-14.07.39zm-46.15-31.07c3.424 7.649 10.244 13.687 16.847 19.533l2.997 2.671c.69.623 1.288 1.201 1.84 1.735 2.301 2.226 3.689 3.569 7.934 4.26 4.753.781 10.006 1.145 16.533 1.145 4.649 0 9.345-.184 13.99-.365 4.569-.178 9.09-.354 13.471-.354h51.928c1.887 0 4.24.137 6.833.288 3.141.184 6.637.388 10.073.388 7.09 0 11.888-.92 14.668-2.814 1.703-1.159 3.085-3.014 4.55-4.977 1.556-2.086 3.164-4.244 5.356-5.872 4.386-3.247 8.492-5.666 12.494-7.354l-25.019-11.672c-1.911.819-4.718 1.218-8.555 1.218-4.812 0-10.325-.616-15.189-1.159-3.438-.384-6.438-.722-8.37-.731-10.56-.053-21.425-.495-31.933-.922-11.334-.461-23.054-.938-34.546-.938-22.289-.01-40.09 1.88-55.907 5.91z"/>
 <path d="m267.29 124.85c-2.43-29.894-22.53-123.18-123.16-123.98-110.11-.882-133.31 74.565-138.87 104.65-6.849 37.033-6.043 90.167 4.426 119.27 6.443-4.152 1.124-8.7 7.424-13.59 4.623-3.587 18.591-10.869 21.948-15.511 6.301-8.704 13.291-24.154 18.13-27.771 4.826-3.631 141.55-2.294 147.32 0 5.745 2.291 15.728 35.043 19.924 39.239 4.183 4.196 14.131 11.109 17.109 15.099.575 6.358 1.001 10.869 5.23 13.285 10.46-24.96 26.17-41.46 20.52-110.69z" fill="#7E6F61"/>
 <path d="m247.19 236.77l-.845-.482c-4.639-2.65-5.09-7.639-5.661-13.955-1.503-1.799-5.55-5.073-9.464-8.239-2.89-2.337-5.619-4.545-7.398-6.33-1.874-1.875-4.595-8.509-7.745-16.191-3.748-9.14-8.882-21.658-11.888-22.856-2.827-1.125-44.251-2.188-85.237-2.188-42.855 0-59.779 1.121-61.251 2.081-2.725 2.037-6.452 8.52-10.056 14.789-2.605 4.532-5.3 9.218-7.889 12.795-2.291 3.168-8.954 7.292-14.832 10.931-2.939 1.819-5.716 3.538-7.285 4.755-2.834 2.199-3.072 4.251-3.324 6.424-.266 2.293-.567 4.892-4.162 7.209l-.91.586-.367-1.019c-10.997-30.57-10.904-84.87-4.461-119.71 7.267-39.354 34.834-105.37 137.81-105.37l1.911.008c110.75.882 122.99 112.09 124.02 124.77 4.726 57.963-5.341 78.884-15.075 99.115-1.899 3.947-3.776 7.847-5.509 11.979l-.38.89zm-128.24-71.96c37.871 0 82.452.949 85.875 2.31 3.42 1.364 7.48 10.726 12.843 23.803 2.952 7.198 5.74 13.997 7.371 15.628 1.716 1.721 4.41 3.9 7.263 6.208 3.997 3.232 8.129 6.575 9.928 8.984.679 6.198 1.051 10.206 4.149 12.518 1.63-3.811 3.377-7.441 5.143-11.111 9.635-20.024 19.598-40.731 14.911-98.229-1-12.52-13.08-122.32-122.3-123.19l-1.897-.007c-101.73-.001-128.94 65.132-136.11 103.96-6.327 34.208-6.507 87.259 4.01 117.74 2.064-1.668 2.262-3.374 2.487-5.315.269-2.317.573-4.943 3.979-7.586 1.641-1.273 4.326-2.935 7.435-4.859 5.458-3.379 12.252-7.583 14.343-10.476 2.537-3.504 5.208-8.151 7.791-12.644 3.861-6.716 7.509-13.061 10.522-15.313 2.655-1.99 35.331-2.41 62.273-2.41z"/>
 <path d="m70.467 170.94c-19.924 6.033-28.979 28.979-34.915 34.806-3.905 3.851-4.021 8.067-9.772 13.403 4.853-.399 6.537 4.446.92 9.143 8.453 1.218 8.636 11.39 2.619 12.683 17.508-3.824 9.245 17.958 7.241 20.537 15.092-14.293 13.481 7.039 10.267 18.104 12.08-6.233 13.685-.189 14.49 20.736 3.12-6.625 22.137-2.43 24.154 27.571 22.036-39.651 34.096-34.826 40.545-35.016 6.436-.203 14.888-4.636 39.848 35.016 2.01-30.001 21.021-34.197 24.153-27.571.806-20.926 2.416-26.969 14.49-20.736-3.215-11.065-4.832-32.397 10.26-18.104-1.997-2.579-10.26-24.36 7.248-20.537-6.03-1.292-5.834-11.464 2.612-12.683-5.604-4.697-3.926-9.542.914-9.143-5.74-5.336-7.194-8.564-9.767-13.403-3.255-6.098 1.408-28.773-17.312-33-13.881-3.129-54.338-9.654-66.418 6.044-13.27-15.1-47.503-12.11-61.573-7.85z" fill="#9D826E"/>
 <path d="m84.807 330.89l-.195-2.909c-1.454-21.63-11.698-29.48-18.229-29.48-2.062 0-3.624.808-4.287 2.216l-1.639-.333c-.797-20.704-1.892-25.857-13.234-20.004l-1.78.919.557-1.94c2.226-7.662 3.081-17.516.658-20.742-.528-.704-1.16-1.031-1.989-1.031-1.245 0-3.56.787-7.518 4.534l-1.272-1.153c1.337-1.72 5.147-11.724 2.725-16.674-1.325-2.707-4.348-3.523-9.069-2.5-.002 0-.004.001-.007.001l-.394-1.676.026-.006c2.495-.549 3.536-2.86 3.46-4.907-.088-2.414-1.725-5.454-6.044-6.077l-1.91-.275 1.48-1.237c2.977-2.489 3.538-4.752 3.07-6.04-.37-1.02-1.423-1.605-2.887-1.605h-2.194l1.058-1.469c3.102-2.878 4.486-5.375 5.825-7.789 1.084-1.956 2.109-3.803 3.928-5.597 1.525-1.498 3.357-4.316 5.479-7.58 5.937-9.131 14.907-22.931 29.791-27.438 5.573-1.686 15.474-3.488 26.551-3.488 11.425 0 26.664 1.907 35.239 10.849 5.537-6.392 16.316-9.63 32.065-9.63 15.376 0 30.355 3.108 34.58 4.061 14.171 3.2 15.535 16.727 16.438 25.678.337 3.341.629 6.227 1.444 7.756l.585 1.107c2.22 4.209 3.822 7.25 9.008 12.071l1.821 1.693-2.479-.204c-1.935-.021-2.982.563-3.353 1.581-.469 1.288.09 3.553 3.063 6.044l1.476 1.237-1.905.275c-4.318.623-5.954 3.663-6.044 6.077-.075 2.044.965 4.354 3.46 4.905l-.335 1.689-.033-.007c-4.716-1.022-7.739-.208-9.065 2.496-2.424 4.942 1.38 14.956 2.715 16.68l-1.272 1.152c-3.958-3.748-6.272-4.534-7.517-4.534-.828 0-1.459.327-1.986 1.029-2.421 3.225-1.565 13.08.661 20.743l.56 1.925-1.781-.919c-11.342-5.855-12.438-.696-13.234 20.004l-1.639.335c-.666-1.409-2.231-2.217-4.294-2.217-6.531 0-16.773 7.85-18.223 29.478l-.177 2.642-1.41-2.24c-21.931-34.84-30.968-35.263-37.416-34.725-.578.048-1.135.094-1.677.111l-2.084-.041c-7.346-.308-19.043.978-37.735 34.614l-1.428 2.55zm45.343-39.09c6.757 0 16.206 4.042 35.069 33.502 2.698-26.006 18.397-31.479 24.025-27.214.728-16.906 2.01-25.505 13.936-20.079-1.679-6.701-2.822-16.507.112-20.416 1.828-2.434 4.939-2.298 8.941.642-1.58-4.209-3.021-10.672-1.05-14.693 1.273-2.596 3.685-3.903 7.174-3.881-.934-1.19-1.439-2.76-1.375-4.508.108-2.93 1.971-6.137 5.861-7.346-2.215-2.302-3.089-4.775-2.348-6.812.477-1.312 1.574-2.218 3.046-2.57-4.304-4.264-5.863-7.224-7.948-11.179l-.582-1.1c-.976-1.828-1.282-4.87-1.638-8.393-.904-8.966-2.143-21.245-15.104-24.171-4.181-.942-19.003-4.018-34.201-4.018-15.821 0-26.367 3.279-31.345 9.747l-.638.829-.691-.786c-6.245-7.099-18.543-11.009-34.631-11.009-10.889 0-20.598 1.763-26.053 3.414-14.281 4.324-23.045 17.807-28.845 26.729-2.267 3.486-4.057 6.239-5.715 7.868-1.641 1.619-2.563 3.28-3.63 5.205-1.146 2.067-2.424 4.371-4.841 6.914 1.651.367 2.692 1.258 3.152 2.526.739 2.036-.137 4.507-2.354 6.806 3.891 1.21 5.752 4.417 5.86 7.347.064 1.748-.442 3.317-1.374 4.507 3.495-.023 5.91 1.286 7.183 3.887 1.97 4.024.527 10.477-1.055 14.683 4-2.937 7.111-3.07 8.939-.636 2.936 3.91 1.793 13.714.115 20.415 11.927-5.425 13.208 3.169 13.936 20.075 5.606-4.248 21.227 1.185 24 26.987 16.75-29.293 27.927-33.126 35.835-33.126.749 0 1.451.029 2.108.057l1.57.045c.902-.021 1.428-.065 1.976-.111.81-.08 1.67-.15 2.58-.15z"/>
 <path d="m213.56 166.1c9.657-99.626-48.903-124.3-74.282-124.91-28.958-.67-103.44 34.949-90.964 125.92l165.24-1.01z" fill="#9D826E"/>
 <path d="m213.43 101.54c1.205 5.194-.04 9.925-2.802 10.568-2.761.65-5.976-3.045-7.2-8.239-1.212-5.195.054-9.925 2.815-10.565 2.75-.650 5.98 3.045 7.19 8.235z"/>
 <path d="m52.492 101.54c-1.226 5.194.02 9.925 2.781 10.568 2.775.65 5.997-3.045 7.201-8.239 1.225-5.195-.027-9.925-2.789-10.565-2.761-.650-5.989 3.045-7.193 8.235z"/>
 <path d="m132.05 178.79l.088 108.61c7.417-1.089 74.783-101.98 63.014-115.56-7.25-1.81-52.83-8.75-63.1 6.95z" fill="#7E6F61"/>
 <path d="m131.32 178.79l-.081 108.61c-7.411-1.089-74.79-101.98-63.014-115.56 7.249-1.81 52.824-8.75 63.094 6.95z" fill="#AE977E"/>
 <path d="m144.42 35.989c0 1.262-1.021 2.284-2.273 2.284-1.266 0-2.288-1.022-2.288-2.284s1.022-2.284 2.288-2.284c1.25.001 2.27 1.022 2.27 2.284z"/>
 <path d="m134.94 35.989c0 1.262 1.022 2.284 2.288 2.284 1.259 0 2.28-1.022 2.28-2.284s-1.021-2.284-2.28-2.284c-1.27.001-2.29 1.022-2.29 2.284z"/>
 <path d="m143.82 264.52c0 1.834-1.481 3.316-3.315 3.316s-3.33-1.482-3.33-3.316c0-1.841 1.496-3.316 3.33-3.316s3.32 1.48 3.32 3.32z" fill="#C3A58C"/>
 <path d="m174.53 182.41c0 2.944-2.396 5.346-5.346 5.346-2.944 0-5.36-2.402-5.36-5.346 0-2.947 2.416-5.35 5.36-5.35 2.95 0 5.35 2.4 5.35 5.35z" fill="#C3A58C"/>
 <path d="m167.71 200.22c0 2.677-2.187 4.859-4.866 4.859-2.687 0-4.866-2.183-4.866-4.859 0-2.693 2.18-4.866 4.866-4.866 2.68.01 4.87 2.18 4.87 4.87z" fill="#C3A58C"/>
 <path d="m161.53 218.03c0 2.437-1.977 4.416-4.413 4.416-2.443 0-4.426-1.979-4.426-4.416 0-2.436 1.982-4.413 4.426-4.413 2.43-.01 4.41 1.97 4.41 4.41z" fill="#C3A58C"/>
 <path d="m156 234.64c0 2.22-1.808 4.02-4.027 4.02-2.213 0-4.013-1.8-4.013-4.02 0-2.216 1.8-4.023 4.013-4.023 2.22-.01 4.03 1.8 4.03 4.02z" fill="#C3A58C"/>
 <path d="m150.2 249.42c0 2.023-1.645 3.648-3.661 3.648s-3.654-1.625-3.654-3.648c0-2.017 1.638-3.655 3.654-3.655s3.66 1.64 3.66 3.66z" fill="#C3A58C"/>
 <path d="m115.97 264.52c0 1.834 1.475 3.316 3.303 3.316 1.847 0 3.336-1.482 3.336-3.316 0-1.841-1.489-3.316-3.336-3.316-1.82 0-3.3 1.48-3.3 3.32z" fill="#C3A58C"/>
 <path d="m85.261 182.41c0 2.944 2.389 5.346 5.354 5.346 2.944 0 5.339-2.402 5.339-5.346 0-2.947-2.396-5.35-5.339-5.35-2.965 0-5.354 2.4-5.354 5.35z" fill="#C3A58C"/>
 <path d="m92.089 200.22c0 2.677 2.166 4.859 4.859 4.859 2.687 0 4.853-2.183 4.853-4.859 0-2.693-2.166-4.866-4.853-4.866-2.692.01-4.858 2.18-4.858 4.87z" fill="#C3A58C"/>
 <path d="m98.262 218.03c0 2.437 1.983 4.416 4.426 4.416 2.437 0 4.413-1.979 4.413-4.416 0-2.436-1.976-4.413-4.413-4.413-2.45-.01-4.428 1.97-4.428 4.41z" fill="#C3A58C"/>
 <path d="m103.8 234.64c0 2.22 1.807 4.02 4.02 4.02 2.22 0 4.007-1.8 4.007-4.02 0-2.216-1.787-4.023-4.007-4.023-2.22-.01-4.02 1.8-4.02 4.02z" fill="#C3A58C"/>
 <path d="m109.6 249.42c0 2.023 1.631 3.648 3.654 3.648 2.01 0 3.655-1.625 3.655-3.648 0-2.017-1.645-3.655-3.655-3.655-2.01.01-3.64 1.64-3.64 3.66z" fill="#C3A58C"/>
 <path d="m132.45 165.5l30.19.403c5.218-.944-21.738-92.579-29.825-93.066l-.37 92.666z" fill="#7E6F61"/>
 <path d="m133.13 165.5l-30.205.403c-5.218-.944 21.738-92.579 29.832-93.066l.38 92.666z" fill="#AE977E"/>
</svg>
